<?xml version="1.0" encoding="utf-8"?>
<!-- Generator: Adobe Illustrator 15.0.0, SVG Export Plug-In . SVG Version: 6.00 Build 0)  -->
<!DOCTYPE svg PUBLIC "-//W3C//DTD SVG 1.1//EN" "http://www.w3.org/Graphics/SVG/1.1/DTD/svg11.dtd">
<svg version="1.1" id="Layer_1" xmlns="http://www.w3.org/2000/svg" xmlns:xlink="http://www.w3.org/1999/xlink" x="0px" y="0px"
	 width="959px" height="593px" viewBox="0 0 959 593" enable-background="new 0 0 959 593" xml:space="preserve">
<path id="FL" fill="#D3D3D3" stroke="#FFFFFF" d="M759.815,439.143l2.268,7.318l3.729,9.741l5.336,9.376l3.719,6.307l4.85,5.496
	l4.042,3.718l1.616,2.91l-1.132,1.293l-0.81,1.294l2.91,7.436l2.91,2.91l2.586,5.335l3.557,5.819l4.527,8.245l1.293,7.598
	l0.484,11.963l0.646,1.778l-0.321,3.396l-2.427,1.293l0.324,1.94l-0.647,1.939l0.323,2.425l0.485,1.939l-2.748,3.232l-3.071,1.455
	l-3.881,0.162l-1.454,1.616l-2.425,0.971l-1.294-0.485l-1.132-0.97l-0.322-2.91l-0.81-3.395l-3.395-5.175l-3.557-2.263l-3.881-0.323
	l-0.809,1.293l-3.07-4.364l-0.646-3.557l-2.587-4.042l-1.778-1.132l-1.617,2.103l-1.776-0.323l-2.103-5.012l-2.909-3.881
	l-2.91-5.334l-2.586-3.071l-3.558-3.719l2.103-2.425l3.231-5.496l-0.16-1.617l-4.526-0.97l-1.617,0.646l0.323,0.646l2.587,0.971
	l-1.455,4.526l-0.81,0.484l-1.776-4.041l-1.294-4.851l-0.323-2.749l1.455-4.688v-9.538l-3.071-3.719l-1.294-3.071l-5.173-1.293
	l-1.939-0.646l-1.616-2.588l-3.396-1.616l-1.132-3.396l-2.748-0.97l-2.425-3.718l-4.203-1.455l-2.91-1.455h-2.587l-4.041,0.809
	l-0.162,1.939l0.81,0.97l-0.485,1.132l-3.071-0.162l-3.719,3.558l-3.556,1.939h-3.88l-3.233,1.293l-0.323-2.748l-1.617-1.939
	l-2.908-1.131l-1.617-1.455l-8.083-3.88l-7.599-1.778l-4.364,0.646l-5.98,0.485l-5.981,2.103l-3.479,0.611l-0.237-8.05l-2.586-1.938
	l-1.779-1.778l0.324-3.071l10.185-1.294l25.542-2.909l6.79-0.646l5.436,0.28l2.587,3.88l1.455,1.454l8.099,0.517l10.819-0.646
	l21.513-1.293l5.446-0.675l5.106,0.204l0.427,2.91l2.232,0.809l0.234-4.631l-1.527-4.172l1.309-1.44l5.555,0.455L759.815,439.143
	L759.815,439.143z M772.362,571.547l2.425-0.646l1.293-0.242l1.455-2.344l2.345-1.617l1.293,0.485l1.697,0.323l0.404,1.051
	l-3.477,1.212l-4.204,1.455l-2.344,1.213L772.362,571.547L772.362,571.547z M785.86,566.535l1.213,1.052l2.748-2.103l5.335-4.203
	l3.718-3.88l2.506-6.629l0.971-1.697l0.161-3.395l-0.728,0.484l-0.971,2.829l-1.455,4.606l-3.232,5.255l-4.364,4.203L788.366,565
	L785.86,566.535L785.86,566.535z"/>
<path id="NH" fill="#D3D3D3" stroke="#FFFFFF" d="M880.799,142.425l0.869-1.077l1.091-3.291l-2.544-0.913l-0.483-3.071l-3.881-1.132
	l-0.322-2.748l-7.275-23.44l-4.602-14.543l-0.896-0.005l-0.646,1.615l-0.646-0.483l-0.97-0.971l-1.455,1.939l-0.048,5.032
	l0.312,5.667l1.939,2.748v4.042l-3.718,5.062l-2.588,1.132v1.133l1.133,1.777v8.567l-0.81,9.215l-0.161,4.85l0.971,1.294
	l-0.162,4.526l-0.484,1.778l0.969,0.709l16.787-4.425l2.176-0.604l1.844-2.772L880.799,142.425L880.799,142.425z"/>
<g id="MI">
	<path id="MI-" fill="#D3D3D3" stroke="#FFFFFF" d="M697.86,177.237l-3.233-8.243l-2.264-9.055l-2.425-3.231l-2.586-1.778
		l-1.617,1.131l-3.881,1.778l-1.938,5.012l-2.749,3.719l-1.131,0.646l-1.455-0.646c0,0-2.587-1.455-2.425-2.102
		c0.161-0.647,0.483-5.012,0.483-5.012l3.396-1.294l0.809-3.396l0.646-2.587l2.425-1.616l-0.323-10.021l-1.617-2.265l-1.293-0.809
		l-0.809-2.103l0.809-0.808l1.616,0.323l0.162-1.617l-2.425-2.263l-1.293-2.587h-2.587l-4.526-1.455l-5.497-3.396h-2.748
		l-0.646,0.646l-0.971-0.485l-3.071-2.263l-2.909,1.777l-2.91,2.264l0.323,3.557l0.97,0.323l2.102,0.484l0.485,0.81l-2.587,0.808
		l-2.586,0.323l-1.455,1.778l-0.323,2.102l0.323,1.617l0.323,5.496l-3.558,2.102l-0.646-0.161v-4.202l1.293-2.427l0.646-2.425
		l-0.809-0.808l-1.939,0.808l-0.97,4.203l-2.748,1.132l-1.777,1.94l-0.162,0.97l0.646,0.809l-0.646,2.587l-2.265,0.484v1.132
		l0.81,2.426l-1.131,6.143l-1.617,4.042l0.646,4.688l0.485,1.132l-0.809,2.425l-0.323,0.809l-0.323,2.748l3.558,5.981l2.909,6.467
		l1.454,4.85l-0.808,4.688l-0.97,5.981l-2.427,5.173l-0.321,2.748l-3.261,3.085l4.409-0.162l21.418-2.264l7.278-0.986l0.096,1.666
		l6.854-1.212l10.298-1.503l3.854-0.461l0.139-0.589l0.162-1.455l2.102-3.718l2-1.737l-0.222-5.053l1.597-1.597l1.091-0.343
		l0.222-3.558l1.536-3.03l1.052,0.605l0.162,0.646l0.808,0.161l1.94-0.971L697.86,177.237L697.86,177.237z"/>
	<path id="SP-" fill="#D3D3D3" stroke="#FFFFFF" d="M581.619,82.059l1.829-2.058l2.172-0.8l5.373-3.888l2.286-0.57l0.457,0.456
		l-5.145,5.145l-3.314,1.943l-2.059,0.915L581.619,82.059L581.619,82.059z M667.794,114.187l0.646,2.506l3.232,0.162l1.293-1.213
		c0,0-0.081-1.455-0.404-1.616c-0.322-0.162-1.615-1.858-1.615-1.858l-2.184,0.241l-1.615,0.162l-0.324,1.133L667.794,114.187z
		 M567.492,111.213l0.716-0.58l2.749-0.81l3.556-2.264v-0.97l0.647-0.646l5.981-0.97l2.425-1.94l4.363-2.102l0.162-1.293l1.939-2.91
		l1.778-0.809l1.293-1.777l2.264-2.264l4.365-2.425l4.688-0.485l1.131,1.132l-0.322,0.97l-3.719,0.972l-1.455,3.07l-2.264,0.809
		l-0.484,2.426l-2.425,3.232l-0.323,2.587l0.809,0.484l0.97-1.132l3.558-2.91l1.293,1.293h2.264l3.232,0.972l1.455,1.132l1.455,3.07
		l2.748,2.748l3.88-0.161l1.455-0.971l1.616,1.293l1.617,0.485l1.293-0.809h1.132l1.616-0.971l4.042-3.557l3.396-1.131l6.627-0.324
		l4.526-1.939l2.587-1.293l1.455,0.161v5.658l0.484,0.323l2.91,0.809l1.939-0.484l6.143-1.616l1.133-1.132l1.455,0.484v6.951
		l3.232,3.071l1.293,0.646l1.293,0.972l-1.293,0.322l-0.809-0.322l-3.718-0.485l-2.103,0.646l-2.264-0.16l-3.233,1.454h-1.776
		l-5.82-1.294l-5.173,0.162l-1.94,2.586l-6.951,0.646l-2.425,0.809l-1.132,3.071l-1.293,1.132l-0.484-0.161l-1.455-1.616
		l-4.526,2.425h-0.646l-1.132-1.616l-0.808,0.162l-1.94,4.364l-0.97,4.042l-3.182,7l-1.178-1.034l-1.372-1.031l-1.939-10.288
		l-3.544-1.37l-2.054-2.286l-12.12-2.742l-2.854-1.029l-8.229-2.173l-7.891-1.145L567.492,111.213L567.492,111.213z"/>
</g>
<path id="VT" fill="#D3D3D3" stroke="#FFFFFF" d="M844.483,154.058l0.316-5.346l-2.891-10.784l-0.646-0.323l-2.91-1.293l0.81-2.91
	l-0.81-2.102l-2.699-4.64l0.971-3.881l-0.809-5.174l-2.427-6.466l-0.805-4.923l26.419-6.731l0.309,5.521l1.918,2.742v4.042
	l-3.707,5.058l-2.588,1.143l-0.011,1.121l1.311,1.52l-0.312,8.099l-0.608,9.259l-0.229,5.558l0.97,1.293l-0.161,4.571l-0.484,1.688
	l1.015,0.729l-7.438,1.507L844.483,154.058L844.483,154.058z"/>
<path id="ME" fill="#D3D3D3" stroke="#FFFFFF" d="M922.84,78.83l1.94,2.102l2.263,3.719v1.939l-2.103,4.688l-1.939,0.646
	l-3.395,3.071l-4.851,5.497c0,0-0.646,0-1.293,0s-0.971-2.103-0.971-2.103l-1.777,0.161l-0.971,1.455l-2.425,1.455l-0.971,1.455
	l1.616,1.455l-0.485,0.646l-0.483,2.748l-1.938-0.161v-1.617l-0.324-1.293l-1.455,0.323l-1.777-3.232l-2.102,1.293l1.293,1.454
	l0.322,1.133l-0.809,1.293l0.323,3.071l0.162,1.616l-1.617,2.587l-2.909,0.484l-0.323,2.91l-5.335,3.07l-1.294,0.485l-1.616-1.455
	l-3.07,3.558l0.97,3.232l-1.455,1.293l-0.161,4.365l-1.123,6.259l-2.463-1.155l-0.484-3.071l-3.881-1.132l-0.322-2.748l-7.274-23.44
	l-4.698-14.64l1.42-0.118l1.516,0.41v-2.587l1.308-4.497l2.587-4.688l1.455-4.042l-1.939-2.425v-5.981l0.809-0.97l0.808-2.748
	l-0.161-1.455l-0.16-4.85l1.776-4.852l2.91-8.891l2.103-4.203h1.293l1.293,0.161v1.132l1.293,2.265l2.748,0.646l0.81-0.809v-0.971
	l4.042-2.91l1.777-1.777l1.455,0.162l5.98,2.425l1.939,0.97l9.054,29.907h5.981l0.808,1.938l0.162,4.852l2.909,2.263h0.81
	l0.161-0.483l-0.485-1.133L922.84,78.83L922.84,78.83z M901.908,108.978l1.536-1.535l1.373,1.052l0.565,2.425l-1.696,0.889
	L901.908,108.978z M908.617,103.077l1.778,1.858c0,0,1.293,0.081,1.293-0.242s0.242-2.021,0.242-2.021l0.89-0.809l-0.81-1.777
	l-2.021,0.728L908.617,103.077z"/>
<path id="RI" fill="#D3D3D3" stroke="#FFFFFF" d="M874.07,178.896l-3.696-14.956l6.27-1.846l2.191,1.928l3.307,4.32l2.688,4.402
	l-3,1.624l-1.293-0.161l-1.131,1.777l-2.427,1.939L874.07,178.896z"/>
<path id="NY" fill="#D3D3D3" stroke="#FFFFFF" d="M830.38,188.745l-1.132-0.971l-2.587-0.162l-2.264-1.938l-1.631-6.129l-3.459,0.09
	l-2.442-2.708l-19.386,4.382l-43.002,8.729l-7.529,1.229l-0.738-6.469l1.43-1.125l1.293-1.132l0.97-1.616l1.778-1.132l1.939-1.778
	l0.484-1.616l2.102-2.749l1.132-0.97l-0.161-0.97l-1.294-3.071l-1.777-0.162l-1.939-6.143l2.91-1.778l4.364-1.455l4.041-1.293
	l3.232-0.485l6.305-0.161l1.94,1.294l1.616,0.16l2.102-1.293l2.588-1.132l5.172-0.484l2.103-1.777l1.778-3.233l1.617-1.939h2.102
	l1.939-1.132l0.161-2.264l-1.454-2.102l-0.324-1.455l1.132-2.102v-1.455h-1.777l-1.778-0.81l-0.809-1.131l-0.161-2.587l5.819-5.496
	l0.646-0.809l1.455-2.91l2.91-4.526l2.748-3.718l2.103-2.426l2.414-1.825l3.081-1.246l5.497-1.293l3.232,0.161l4.527-1.454
	l7.563-2.071l0.521,4.979l2.426,6.467l0.809,5.173l-0.971,3.88l2.587,4.526l0.808,2.102l-0.808,2.91l2.909,1.293l0.646,0.323
	l3.071,10.993l-0.536,5.06l-0.484,10.831l0.809,5.497l0.809,3.556l1.455,7.275v8.083l-1.133,2.263l1.84,1.993l0.797,1.679
	l-1.939,1.778l0.322,1.293l1.293-0.323l1.455-1.293l2.265-2.587l1.132-0.646l1.616,0.646l2.264,0.161l7.921-3.879l2.91-2.749
	l1.294-1.455l4.203,1.617l-3.396,3.557l-3.881,2.909l-7.112,5.335l-2.587,0.971l-5.819,1.939l-4.041,1.132l-1.175-0.533
	l-0.244-3.688l0.484-2.748l-0.162-2.103l-2.812-1.698l-4.525-0.971l-3.881-1.132L830.38,188.745L830.38,188.745z"/>
<path id="PA" fill="#D3D3D3" stroke="#FFFFFF" d="M825.124,224.692l1.309-0.271l2.329-1.253l1.212-2.483l1.616-2.264l3.233-3.071
	v-0.809l-2.426-1.616l-3.557-2.425l-0.97-2.587l-2.748-0.323l-0.162-1.132l-0.809-2.748l2.264-1.132l0.162-2.426l-1.294-1.293
	l0.162-1.617l1.938-3.07v-3.071l2.698-2.646l-0.921-0.677l-2.524-0.191l-2.294-1.94l-1.55-6.116l-3.505,0.102l-2.455-2.703
	l-18.091,4.198l-43.002,8.729l-8.893,1.455l-0.619-6.521l-5.363,5.066l-1.293,0.485l-4.202,3.009l2.911,19.138l2.48,9.729
	l3.571,19.262l3.271-0.638l11.942-1.502l37.928-7.665l14.875-2.824l8.302-1.622l0.268-0.238l2.102-1.615L825.124,224.692z"/>
<path id="NJ" fill="#D3D3D3" stroke="#FFFFFF" d="M829.68,188.46l-2.323,2.733v3.071l-1.938,3.071l-0.162,1.617l1.294,1.293
	l-0.162,2.425l-2.263,1.132l0.808,2.748l0.162,1.132l2.748,0.323l0.971,2.587l3.557,2.425l2.425,1.616v0.809l-2.983,2.696
	l-1.615,2.264l-1.455,2.748l-2.264,1.293l-0.463,1.604l-0.242,1.213l-0.608,2.605l1.092,2.244l3.233,2.91l4.85,2.263l4.042,0.647
	l0.162,1.454l-0.81,0.971l0.323,2.748h0.808l2.103-2.425l0.81-4.85l2.747-4.042l3.072-6.468l1.131-5.496l-0.646-1.132l-0.162-9.376
	l-1.616-3.395l-1.132,0.808l-2.748,0.323l-0.484-0.484l1.131-0.971l2.103-1.939l0.062-1.094l-0.384-3.434l0.572-2.749l-0.117-1.969
	l-2.808-1.75l-5.093-1.177l-4.138-1.382L829.68,188.46L829.68,188.46z"/>
<path id="DE" fill="#D3D3D3" stroke="#FFFFFF" d="M825.626,228.279l0.368-2.146l0.375-1.691l-1.622,0.398l-1.616,0.468l-2.206,1.764
	l1.721,5.043l2.264,5.658l2.102,9.699l1.616,6.306l5.012-0.162l6.144-1.181l-2.266-7.387l-0.97,0.485l-3.557-2.426l-1.778-4.688
	l-1.939-3.558l-3.146-2.869l-0.864-2.099L825.626,228.279z"/>
<path id="MD" fill="#D3D3D3" stroke="#FFFFFF" d="M839.792,252.414l-6.009,1.204l-5.144,0.116l-1.844-6.922l-1.925-9.169
	l-2.572-6.188l-1.289-4.398l-7.506,1.622l-14.876,2.823l-37.452,7.551l1.132,5.012l0.971,5.658l0.322-0.323l2.103-2.425l2.264-2.618
	l2.425-0.615l1.455-1.454l1.778-2.586l1.293,0.646l2.91-0.323l2.587-2.102l2.006-1.454l1.846-0.484l1.646,1.13l2.91,1.455
	l1.938,1.778l1.213,1.535l4.122,1.698v2.908l5.497,1.294l1.146,0.543l1.411-2.028l2.882,1.97l-1.277,2.482l-0.766,3.984
	l-1.778,2.586v2.103l0.646,1.778l5.062,1.355l4.312-0.062l3.07,0.971l2.103,0.323l0.971-2.103l-1.455-2.102v-1.778l-2.426-2.102
	l-2.103-5.497l1.295-5.334l-0.162-2.103l-1.293-1.294c0,0,1.455-1.616,1.455-2.263c0-0.647,0.484-2.103,0.484-2.103l1.939-1.294
	l1.938-1.615l0.485,0.97l-1.455,1.617l-1.293,3.718l0.322,1.132l1.778,0.323l0.485,5.496l-2.102,0.97l0.322,3.557l0.484-0.161
	l1.132-1.939l1.617,1.778l-1.617,1.294l-0.323,3.395l2.588,3.396l3.879,0.484l1.616-0.809l3.236,4.184l1.358,0.536l6.652-2.797
	l2.008-4.024L839.792,252.414L839.792,252.414z M823.822,261.444l1.132,2.506l0.161,1.778l1.132,1.858c0,0,0.889-0.89,0.889-1.212
	c0-0.323-0.727-3.072-0.727-3.072l-0.729-2.344L823.822,261.444z"/>
<path id="VA" fill="#D3D3D3" stroke="#FFFFFF" d="M831.639,266.069l-0.144-1.946l6.453-2.551l-0.771,3.219l-2.92,3.778l-0.418,4.586
	l0.462,3.392l-1.828,4.979l-2.163,1.916l-1.472-4.641l0.446-5.449l1.587-4.184L831.639,266.069L831.639,266.069z M834.979,294.37
	l-58.176,12.574l-37.427,5.279l-6.679-0.375l-2.585,1.926l-7.339,0.221l-8.383,0.979l-10.914,1.615l10.469-5.611l-0.014-2.075
	l1.521-2.146l10.555-11.501l3.946,4.478l3.783,0.964l2.543-1.141l2.236-1.311l2.537,1.344l3.914-1.428l1.877-4.558l2.602,0.54
	l2.854-2.132l1.801,0.494l2.826-3.677l0.35-2.083l-0.965-1.275l1.004-1.867l5.273-12.275l0.616-5.735l1.229-0.523l2.178,2.442
	l3.936-0.301l1.93-7.574l2.795-0.562l1.05-2.74l2.58-2.348l2.771-5.694l0.085-5.067l9.821,3.823c0.682,0.34,0.833-5.05,0.833-5.05
	l3.653,1.599l0.067,2.938l5.783,1.3l2.134,1.177l1.659,2.056l-0.653,3.648l-1.947,2.591l0.108,2.06l0.591,1.854l4.979,1.269
	l4.451,0.04l3.068,0.958l1.942,0.311l0.715,3.089l3.191,0.402l0.866,1.199l-0.438,4.689l1.375,1.103l-0.479,1.932l1.229,0.79
	l-0.221,1.385l-2.694-0.096l0.089,1.615l2.281,1.543l0.121,1.411l1.772,1.786l0.492,2.523l-2.554,1.382l1.571,1.494l5.802-1.687
	L834.979,294.37L834.979,294.37z"/>
<path id="WV" fill="#D3D3D3" stroke="#FFFFFF" d="M761.187,238.967l1.111,4.944l1.083,6.03l2.13-2.58l2.264-3.07l2.539-0.615
	l1.455-1.455l1.777-2.587l1.445,0.646l2.91-0.322l2.586-2.103l2.008-1.453l1.845-0.484l1.304,1.017l3.645,1.822l1.939,1.777
	l1.373,1.294l-0.762,5.555l-5.834-2.541l-4.246-1.622l-0.101,5.179l-2.748,5.536l-2.53,2.427l-1.191,2.75l-2.644,0.5l-0.897,3.603
	l-1.043,3.949l-3.969,0.341l-2.324-2.438l-1.07,0.561l-0.633,5.47l-1.351,3.534l-4.959,10.955l0.897,1.161l-0.206,1.907
	l-2.811,3.886l-1.808-0.546l-2.969,2.16l-2.542-0.571l-1.999,4.556c0,0-3.26,1.43-3.924,1.367c-0.16-0.016-2.47-1.249-2.47-1.249
	l-2.336,1.38l-2.409,1.044l-3.746-0.889l-1.12-1.169l-2.191-3.023l-3.143-1.987l-1.712-3.624l-4.285-3.468l-0.646-2.264
	l-2.587-1.454l-0.808-1.617l-0.243-5.254l2.183-0.081l1.94-0.808l0.161-2.749l1.616-1.454l0.161-5.013l0.971-3.88l1.294-0.646
	l1.293,1.131l0.485,1.778l1.777-0.971l0.484-1.615l-1.131-1.778v-2.425l0.97-1.294l2.263-3.396l1.293-1.455l2.104,0.485l2.263-1.617
	l3.072-3.395l2.263-3.881l0.323-5.657l0.485-5.013v-4.688l-1.133-3.072l0.971-1.454l1.283-1.294l3.49,19.827l4.633-0.751
	L761.187,238.967L761.187,238.967z"/>
<path id="OH" fill="#D3D3D3" stroke="#FFFFFF" d="M735.325,193.328l-6.094,4.054l-3.881,2.263l-3.395,3.718l-4.042,3.881
	l-3.233,0.809l-2.908,0.485l-5.497,2.586l-2.103,0.162l-3.395-3.071l-5.174,0.646l-2.586-1.455l-2.382-1.351l-4.893,0.703
	l-10.185,1.616l-11.207,2.186l1.293,14.63l1.777,13.741l2.587,23.44l0.565,4.831l4.122-0.13l2.426-0.808l3.363,1.503l2.069,4.364
	l5.14-0.018l1.893,2.119l1.761-0.064l2.539-1.343l2.504,0.371l5.422,0.483l1.727-2.133l2.346-1.294l2.07-0.682l0.647,2.748
	l1.777,0.972l3.477,2.344l2.183-0.081l1.333-0.492l0.185-2.762l1.586-1.455l0.1-4.792l1.023-4.109l1.3-0.602l1.321,1.146
	l0.537,1.697l1.72-1.037l0.438-1.461l-1.117-1.902l0.066-2.314l0.749-1.072l2.153-3.307l1.05-1.543l2.102,0.485l2.265-1.617
	l3.07-3.396l2.771-4.079l0.32-5.055l0.483-5.012l-0.176-5.309l-0.955-2.895l0.352-1.189l1.805-1.75l-2.289-9.048L735.325,193.328
	L735.325,193.328z"/>
<path id="IN" fill="#D3D3D3" stroke="#FFFFFF" d="M619.569,299.971l0.064-2.858l0.485-4.525l2.263-2.91l1.778-3.88l2.587-4.203
	l-0.485-5.819l-1.778-2.748l-0.322-3.232l0.809-5.497l-0.484-6.951l-1.293-16.004l-1.293-15.358l-0.972-11.72l3.071,0.89
	l1.455,0.971l1.131-0.323l2.102-1.94l2.83-1.615l5.094-0.162l21.984-2.265l5.576-0.532l1.503,15.955l4.251,36.843l0.6,5.771
	l-0.371,2.265l1.228,1.795l0.097,1.373l-2.521,1.6l-3.539,1.551l-3.202,0.551l-0.599,4.866l-4.575,3.312l-2.796,4.011l0.323,2.377
	l-0.582,1.534h-3.326l-1.585-1.616l-2.493,1.262l-2.684,1.503l0.161,3.056l-1.193,0.258l-0.468-1.019l-2.168-1.504l-3.25,1.343
	l-1.552,3.007l-1.438-0.81l-1.455-1.6l-4.464,0.485l-5.594,0.97L619.569,299.971L619.569,299.971z"/>
<path id="IL" fill="#D3D3D3" stroke="#FFFFFF" d="M619.542,300.342l0.03-3.229l0.566-4.646l2.333-2.916l1.866-4.076l2.233-3.995
	l-0.372-5.252l-2.005-3.543l-0.098-3.347l0.695-5.271l-0.825-7.179l-1.065-15.777l-1.294-15.018l-0.923-11.639l-0.271-0.922
	l-0.809-2.587l-1.293-3.719l-1.616-1.777l-1.455-2.587l-0.234-5.488l-45.796,2.599l0.229,2.372l2.286,0.687l0.915,1.143l0.457,1.829
	l3.887,3.43l0.687,2.286l-0.687,3.43l-1.828,3.657l-0.687,2.516l-2.287,1.829l-1.827,0.687l-5.26,1.372l-0.686,1.828l-0.688,2.058
	l0.688,1.372l1.829,1.601l-0.229,4.115l-1.829,1.602l-0.687,1.6v2.744l-1.828,0.457l-1.602,1.143l-0.229,1.372l0.229,2.059
	l-1.715,1.313l-1.028,2.801l0.458,3.658l2.285,7.315l7.315,7.545l5.487,3.658l-0.229,4.344l0.914,1.371l6.401,0.458l2.744,1.371
	l-0.688,3.657l-2.286,5.944l-0.686,3.2l2.286,3.887l6.4,5.259l4.572,0.687l2.059,5.028l2.058,3.201l-0.914,2.973l1.6,4.114
	l1.829,2.059l1.414-0.88l0.908-2.075l2.213-1.747l2.132-0.615l2.603,1.181l3.627,1.375l1.188-0.298l0.2-2.259l-1.288-2.411
	l0.306-2.377l1.838-1.348l3.022-0.812l1.261-0.458l-0.611-1.387l-0.792-2.354l1.433-0.98L619.542,300.342L619.542,300.342z"/>
<path id="CT" fill="#D3D3D3" stroke="#FFFFFF" d="M874.067,178.863l-3.678-14.879l-4.719,0.921l-21.229,4.743l1,3.227l1.455,7.273
	l0.177,8.967l-1.22,2.176l1.921,1.933l4.271-3.905l3.557-3.232l1.939-2.103l0.809,0.646l2.748-1.455l5.174-1.132L874.067,178.863
	L874.067,178.863z"/>
<path id="WI" fill="#D3D3D3" stroke="#FFFFFF" d="M615.065,197.368l-0.066-3.157l-1.179-4.526l-0.647-6.144l-1.131-2.426l0.97-3.07
	l0.81-2.91l1.455-2.586l-0.647-3.396l-0.646-3.557l0.484-1.778l1.939-2.425l0.162-2.748l-0.81-1.293l0.647-2.587l-0.453-4.171
	l2.748-5.658l2.91-6.789l0.162-2.264l-0.324-0.97l-0.809,0.484l-4.203,6.306l-2.748,4.04l-1.939,1.778l-0.809,2.264l-1.955,0.809
	l-1.131,1.939l-1.455-0.322l-0.162-1.778l1.294-2.425l2.102-4.688l1.778-1.615l0.99-2.358l-2.562-1.901l-1.975-10.366l-3.547-1.343
	l-1.947-2.308l-12.129-2.722l-2.876-1.014l-8.214-2.167l-7.918-1.159l-3.766-5.13l-0.75,0.555l-1.198-0.162l-0.646-1.131
	l-1.334,0.296l-1.132,0.162l-1.778,0.97l-0.97-0.646l0.646-1.939l1.94-3.071l1.131-1.132l-1.939-1.455l-2.102,0.809l-2.91,1.94
	l-7.437,3.232l-2.91,0.646l-2.909-0.485l-0.982-0.878l-2.115,2.835l-0.229,2.743v8.459l-1.144,1.602l-5.258,3.887l-2.287,5.944
	l0.458,0.229l2.515,2.058l0.686,3.2l-1.828,3.201v3.887l0.458,6.631l2.972,2.972h3.43l1.829,3.201l3.429,0.457l3.888,5.716
	l7.087,4.115l2.059,2.742l0.914,7.432l0.687,3.313l2.286,1.602l0.229,1.372l-2.059,3.429l0.229,3.201l2.516,3.887l2.516,1.143
	l2.972,0.458l1.343,1.381L615.065,197.368z"/>
<path id="NC" fill="#D3D3D3" stroke="#FFFFFF" d="M834.981,294.316l2.084,4.917l3.558,6.467l2.425,2.426l0.646,2.263l-2.426,0.162
	l0.81,0.646l-0.323,4.203l-2.587,1.293l-0.646,2.102l-1.293,2.91l-3.72,1.617l-2.425-0.324l-1.455-0.16l-1.615-1.295l0.322,1.295
	v0.97h1.939l0.809,1.293l-1.939,6.305h4.203l0.646,1.617l2.264-2.264l1.293-0.484l-1.939,3.557l-3.071,4.851h-1.293l-1.132-0.485
	l-2.748,0.646l-5.173,2.425l-6.468,5.335l-3.395,4.688l-1.939,6.468l-0.485,2.425l-4.688,0.483L799.767,362l-9.946-8.203
	l-12.609-7.599l-2.91-0.809l-12.608,1.455l-4.276,0.75l-1.616-3.232l-2.971-2.117l-16.489,0.485l-7.274,0.809l-9.053,4.526
	l-6.144,2.586l-21.178,2.587l0.5-4.055l1.777-1.454l2.748-0.647l0.646-3.718l4.203-2.748l3.881-1.454l4.203-3.558l4.363-2.102
	l0.646-3.071l3.88-3.88l0.646-0.162c0,0,0,1.132,0.809,1.132s1.939,0.323,1.939,0.323l2.264-3.558l2.102-0.646l2.264,0.323
	l1.616-3.558l2.91-2.587l0.485-2.102l0.188-3.647l4.276-0.021l7.198-0.856l15.758-2.252l15.136-2.087l21.642-4.719l19.982-4.259
	l11.177-2.406L834.981,294.316L834.981,294.316z M839.252,327.522l2.587-2.506l3.152-2.586l1.535-0.646l0.162-2.021l-0.646-6.144
	l-1.455-2.345l-0.646-1.858l0.728-0.242l2.749,5.497l0.404,4.444l-0.162,3.396l-3.396,1.536l-2.829,2.425l-1.132,1.213
	L839.252,327.522L839.252,327.522z"/>
<path id="DC" fill="#D3D3D3" stroke="#FFFFFF" d="M805.819,250.844l-1.858-1.824l-1.231-0.687l1.442-2.022l2.89,1.948
	L805.819,250.844z"/>
<path id="MA" fill="#D3D3D3" stroke="#FFFFFF" d="M899.624,173.254l2.172-0.688l0.457-1.714l1.028,0.114l1.028,2.286l-1.258,0.457
	l-3.887,0.113L899.624,173.254z M890.25,174.054l2.286-2.629h1.601l1.829,1.486l-2.4,1.027l-2.172,1.029L890.25,174.054z
	 M855.45,152.066l17.646-4.641l2.264-0.646l1.914-2.796l3.736-1.663l2.891,4.413l-2.426,5.173l-0.322,1.455l1.938,2.586l1.131-0.808
	h1.779l2.263,2.586l3.881,5.981l3.557,0.484l2.264-0.97l1.777-1.778l-0.809-2.748l-2.102-1.616l-1.455,0.809l-0.97-1.293
	l0.483-0.485l2.103-0.162l1.778,0.81l1.939,2.425l0.97,2.91l0.323,2.425l-4.203,1.455l-3.88,1.939l-3.88,4.526l-1.939,1.454v-0.97
	l2.426-1.455l0.484-1.778l-0.809-3.071l-2.91,1.455l-0.809,1.455l0.484,2.264l-2.066,1.001l-2.746-4.527l-3.396-4.364l-2.071-1.812
	l-6.533,1.876l-5.092,1.051l-20.676,4.592l-0.667-4.768l0.646-10.589l4.288-0.89L855.45,152.066z"/>
<path id="TN" fill="#D3D3D3" stroke="#FFFFFF" d="M696.678,318.254l-51.893,5.012l-15.761,1.777l-4.62,0.514l-3.868-0.028
	l-0.223,4.102l-8.185,0.265l-6.952,0.646l-8.091-0.125l-1.414,7.072l-1.694,5.48l-3.295,2.751l-1.349,4.381l-0.323,2.587
	l-4.041,2.264l1.454,3.557l-0.97,4.365l-0.968,0.789l108.157-10.407l0.403-3.955l1.812-1.49l2.834-0.749l0.673-3.718l4.098-2.704
	l4.047-1.494l4.084-3.57l4.437-2.024l0.521-3.067l4.064-3.984l0.551-0.114c0,0,0.031,1.132,0.84,1.132c0.81,0,1.94,0.354,1.94,0.354
	l2.263-3.588l2.07-0.646l2.274,0.295l1.599-3.532l2.956-2.645l0.421-1.938l0.31-3.712l-2.146-0.199l-2.603,2.028l-6.992,0.029
	l-18.359,2.387L696.678,318.254z"/>
<path id="AR" fill="#D3D3D3" stroke="#FFFFFF" d="M593.825,343.053l-3.98,0.717l-5.111-0.635l0.421-1.603l2.979-2.565l0.943-3.656
	l-1.83-2.973l-78.417,2.515l1.601,6.859v8.229l1.371,10.975l0.229,37.837l2.287,1.942l2.972-1.372l2.743,1.145l0.681,6.573
	l55.621-1.142l1.146-2.091l-0.286-3.549l-1.825-2.973l1.598-1.485l-1.598-2.511l0.684-2.512l1.368-5.604l2.519-2.063l-0.686-2.284
	l3.658-5.371l2.743-1.368l-0.114-1.493l-0.345-1.826l2.855-5.599l2.403-1.257l0.384-3.429l1.771-1.241l-3.145-0.483l-1.342-4.011
	l2.804-2.377l0.551-2.02l1.279-4.047L593.825,343.053L593.825,343.053z"/>
<path id="MO" fill="#D3D3D3" stroke="#FFFFFF" d="M558.44,248.114l-2.521-3.088l-1.144-2.286l-64.357,2.4l-2.286,0.114l1.258,2.516
	l-0.229,2.286l2.515,3.886l3.086,4.115l3.087,2.744l2.161,0.229l1.496,0.914v2.974l-1.829,1.6l-0.457,2.287l2.059,3.429l2.515,2.974
	l2.516,1.828l1.371,11.659l0.314,36.072l0.229,4.687l0.457,5.384l22.435-0.866l23.206-0.687l20.805-0.801l11.654-0.23l2.169,3.427
	l-0.685,3.308l-3.088,2.403l-0.572,1.837l5.38,0.457l3.895-0.686l1.718-5.494l0.651-5.856l2.098-2.555l2.597-1.487l0.052-3.05
	l1.017-1.938l-1.693-2.544l-1.331,0.984l-1.993-2.229l-1.284-4.759l0.802-2.519l-1.944-3.428l-1.831-4.575l-4.799-0.8l-6.969-5.6
	l-1.72-4.112l0.799-3.201l2.061-6.059l0.459-2.862l-1.949-1.031l-6.854-0.798l-1.028-1.712l-0.111-4.23l-5.487-3.431l-6.976-7.771
	l-2.286-7.315l-0.229-4.227L558.44,248.114L558.44,248.114z"/>
<path id="GA" fill="#D3D3D3" stroke="#FFFFFF" d="M672.292,355.551v2.183l0.162,2.103l0.646,3.396l3.396,7.921l2.426,9.861
	l1.455,6.144l1.616,4.851l1.455,6.951l2.102,6.305l2.586,3.396l0.485,3.396l1.939,0.809l0.161,2.103l-1.777,4.85l-0.485,3.233
	l-0.161,1.938l1.616,4.365l0.324,5.335l-0.81,2.425l0.646,0.81l1.455,0.808l0.205,3.218l2.231,3.35l2.25,2.162l7.922,0.162
	l10.82-0.646l21.512-1.294l5.445-0.674l4.578,0.026l0.161,2.91l2.587,0.808l0.323-4.363l-1.616-4.526l1.131-1.617l5.82,0.81
	l4.977,0.317l-0.773-6.299l2.263-10.022l1.455-4.203l-0.484-2.587l3.334-6.244l-0.511-1.353l-1.913,0.705l-2.586-1.294l-0.647-2.102
	l-1.293-3.558l-2.264-2.102l-2.586-0.646l-1.617-4.85l-2.925-6.335l-4.203-1.94l-2.102-1.938l-1.294-2.587l-2.102-1.939
	l-2.264-1.294l-2.264-2.909l-3.071-2.264l-4.526-1.778l-0.484-1.454l-2.426-2.909l-0.483-1.455l-3.396-4.972l-3.52,0.1l-3.755-2.355
	l-1.418-1.293l-0.323-1.777l0.87-1.94l2.227-1.11l-0.634-2.097L672.292,355.551L672.292,355.551z"/>
<path id="SC" fill="#D3D3D3" stroke="#FFFFFF" d="M764.942,408.164l-1.776,0.97l-2.587-1.293l-0.646-2.103l-1.293-3.557
	l-2.264-2.102l-2.586-0.646l-1.617-4.852l-2.748-5.979l-4.203-1.94l-2.102-1.939l-1.293-2.586l-2.102-1.94l-2.265-1.293l-2.263-2.91
	l-3.071-2.263l-4.526-1.778l-0.484-1.454l-2.425-2.91l-0.485-1.455l-3.395-5.174l-3.396,0.162l-4.041-2.426l-1.294-1.293
	l-0.322-1.777l0.809-1.939l2.264-0.97l-0.511-2.289l5.768-2.337l9.115-4.59l7.775-0.809l16.113-0.423l2.639,1.878l1.68,3.358
	l4.303-0.61l12.609-1.455l2.91,0.809l12.608,7.599l10.107,8.122l-5.421,5.458l-2.588,6.144l-0.483,6.305l-1.617,0.809l-1.131,2.749
	l-2.426,0.646l-2.103,3.558l-2.748,2.748l-2.263,3.395l-1.617,0.81l-3.556,3.395l-2.91,0.162l0.97,3.232l-5.012,5.496
	L764.942,408.164L764.942,408.164z"/>
<path id="KY" fill="#D3D3D3" stroke="#FFFFFF" d="M725.994,295.271l-2.293,2.401l-3.578,3.994l-4.925,5.465l-1.217,1.716
	l-0.062,2.102l-4.38,2.164l-5.658,3.396l-7.23,1.799l-51.868,4.898l-15.761,1.777l-4.62,0.514l-3.868-0.027l-0.229,4.221
	l-8.179,0.145l-6.952,0.646l-7.986-0.061l1.207-1.319l2.5-1.541l0.229-3.201l0.914-1.829l-1.606-2.539l0.803-1.906l2.264-1.777
	l2.102-0.646l2.748,1.293l3.558,1.293l1.131-0.322l0.162-2.264l-1.294-2.426l0.323-2.263l1.939-1.455l2.587-0.646l1.616-0.646
	l-0.809-1.778l-0.646-1.938l1.507-0.996c0.003-0.037,1.254-3.522,1.238-3.658l3.053-1.479l5.32-0.971l4.494-0.484l1.393,1.628
	l1.528,0.87l1.591-3.107l3.187-1.283l2.205,1.484l0.411,0.999l1.173-0.264l-0.161-2.953l3.131-1.749l2.147-1.074l1.53,1.661
	l3.316-0.044l0.588-1.571l-0.367-2.264l2.601-3.998l4.776-3.438l0.706-4.836l2.926-0.455L669,274.88l2.443-1.708l-0.198-1.564
	l-1.143-1.455l0.565-2.995l4.185-0.116l2.301-0.746l3.348,1.429l2.054,4.365l5.132,0.011l2.053,2.208l1.615-0.146l2.602-1.278
	l5.237,0.573l2.573,0.218l1.688-2.058l2.617-1.426l1.882-0.707l0.646,2.837l2.044,1.06l2.644,2.082l0.118,5.674l0.808,1.572
	l2.59,1.556l0.771,2.295l4.159,3.438l1.807,3.624L725.994,295.271L725.994,295.271z"/>
<path id="AL" fill="#D3D3D3" stroke="#FFFFFF" d="M631.307,460.414l-1.491-14.32l-2.747-18.753l0.161-14.064l0.81-31.038
	l-0.162-16.65l0.165-6.42l44.484-3.619l-0.147,2.183l0.161,2.103l0.646,3.395l3.396,7.922l2.425,9.861l1.455,6.143l1.616,4.852
	l1.455,6.951l2.102,6.305l2.587,3.395l0.484,3.396l1.939,0.809l0.162,2.103l-1.778,4.85l-0.484,3.231l-0.162,1.94L690,429.35
	l0.323,5.335l-0.81,2.425l0.646,0.809l1.455,0.81l0.328,2.889l-5.599-0.354l-6.79,0.646l-25.542,2.91l-10.41,1.406l-0.223,2.878
	l1.778,1.778l2.586,1.938l0.581,7.937l-5.542,2.572l-2.748-0.322l2.748-1.94v-0.97l-3.071-5.981l-2.264-0.646l-1.454,4.363
	l-1.294,2.75l-0.646-0.162h-2.747V460.414z"/>
<path id="LA" fill="#D3D3D3" stroke="#FFFFFF" d="M607.967,459.16l-3.284-3.167l1.011-5.5l-0.661-0.893l-9.262,1.006l-25.028,0.459
	l-0.686-2.395l0.913-8.455l3.315-5.946l5.03-8.689l-0.572-2.398l1.256-0.682l0.459-1.952l-2.286-2.057l-0.112-1.941l-1.83-4.347
	l-0.146-6.339l-55.475,0.925l0.029,9.573l0.687,9.373l0.686,3.888l2.515,4.114l0.916,5.03l4.344,5.486l0.229,3.2l0.687,0.687
	l-0.687,8.459l-2.973,5.03l1.601,2.058l-0.686,2.515l-0.687,7.315l-1.371,3.201l0.121,3.615l4.688-1.52l12.113,0.207l10.347,3.556
	l6.466,1.132l3.719-1.454l3.233,1.132l3.233,0.97l0.808-2.102l-3.233-1.132l-2.586,0.484l-2.748-1.616c0,0,0.161-1.294,0.809-1.455
	c0.646-0.161,3.07-0.97,3.07-0.97l1.779,1.455l1.777-0.971l3.232,0.646l1.455,2.426l0.323,2.264l4.526,0.323l1.777,1.777
	l-0.809,1.616l-1.293,0.809l1.617,1.617l8.405,3.556l3.558-1.293l0.97-2.425l2.587-0.646l1.777-1.455l1.294,0.97l0.808,2.91
	l-2.263,0.809l0.646,0.646l3.396-1.294l2.263-3.396l0.81-0.483l-2.103-0.324l0.808-1.616l-0.16-1.455l2.102-0.483l1.132-1.294
	l0.646,0.809c0,0-0.162,3.071,0.646,3.071c0.809,0,4.203,0.646,4.203,0.646l4.041,1.94l0.971,1.455h2.91l1.131,0.97l2.264-3.071
	v-1.455h-1.293l-3.396-2.748l-5.819-0.809l-3.232-2.264l1.132-2.748l2.263,0.322l0.162-0.646l-1.777-0.97v-0.485h3.232l1.778-3.071
	l-1.294-1.938l-0.323-2.749l-1.455,0.162l-1.938,2.102l-0.646,2.587l-3.072-0.646l-0.97-1.778L608.29,469l1.903-3.445l-1.062-2.412
	L607.967,459.16L607.967,459.16z"/>
<path id="MS" fill="#D3D3D3" stroke="#FFFFFF" d="M631.56,459.344l-0.255,1.257h-5.173l-1.455-0.81l-2.102-0.322l-6.79,1.938
	l-1.778-0.808l-2.586,4.203l-1.104,0.776l-1.123-2.486l-1.145-3.888l-3.429-3.2l1.143-5.544l-0.686-0.915l-1.829,0.229l-7.918,0.874
	l-24.547,0.373l-0.771-2.227l0.873-8.377l3.117-5.673l5.229-9.145l-0.446-2.433l1.237-0.656l0.436-1.92l-2.317-2.078l-0.114-2.143
	l-1.836-4.121l-0.108-5.963l1.327-2.48l-0.224-3.415l-1.771-3.083l1.526-1.482l-1.57-2.499l0.457-1.651l1.577-6.526l2.485-2.036
	l-0.642-2.367l3.658-5.303l2.832-1.355l-0.222-1.676l-0.289-1.682l2.877-5.567l2.346-1.23l0.152-0.894l37.344-3.882l0.185,6.283
	l0.161,16.651l-0.808,31.039l-0.162,14.063l2.748,18.753L631.56,459.344z"/>
<path id="IA" fill="#D3D3D3" stroke="#FFFFFF" d="M569.19,199.584l0.266,2.786l2.224,0.576l0.954,1.227l0.5,1.854l3.793,3.358
	l0.687,2.392l-0.675,3.426l-1.582,3.23l-0.8,2.742l-2.173,1.602l-1.716,0.572l-5.579,1.86l-1.392,3.849l0.729,1.372l1.841,1.683
	l-0.283,4.036l-1.763,1.538l-0.771,1.644l0.127,2.775l-1.887,0.458l-1.625,1.104l-0.278,1.353l0.278,2.115l-1.552,1.116
	l-2.471-3.134l-1.263-2.45l-65.735,2.516l-0.918,0.165l-2.053-4.516l-0.229-6.63l-1.601-4.115l-0.687-5.259l-2.285-3.658
	l-0.916-4.801l-2.742-7.546l-1.145-5.371l-1.371-2.173l-1.601-2.743l1.954-4.845l1.372-5.715l-2.744-2.058l-0.457-2.744l0.915-2.515
	h1.714l82.654-1.271l0.834,4.184l2.253,1.562l0.256,1.423l-2.029,3.39l0.19,3.205l2.515,3.8l2.527,1.294l3.079,0.503L569.19,199.584
	L569.19,199.584z"/>
<path id="MN" fill="#D3D3D3" stroke="#FFFFFF" d="M475.237,128.823l-0.457-8.459l-1.828-7.315l-1.83-13.488l-0.457-9.831
	l-1.828-3.43l-1.601-5.029V70.983l0.686-3.887l-1.821-5.451l30.134,0.035l0.322-8.245l0.646-0.161l2.264,0.484l1.939,0.809
	l0.809,5.496l1.455,6.145l1.616,1.615h4.85l0.324,1.455l6.305,0.323v2.103h4.851l0.323-1.293l1.132-1.133l2.263-0.646l1.294,0.97
	h2.909l3.88,2.587l5.335,2.425l2.425,0.485l0.485-0.971l1.455-0.484l0.483,2.91l2.587,1.293l0.484-0.485l1.294,0.162v2.103
	l2.587,0.97h3.071l1.616-0.809l3.232-3.232l2.587-0.485l0.809,1.778l0.484,1.293h0.97l0.971-0.808l8.892-0.324l1.778,3.072h0.646
	l0.713-1.085l4.44-0.37l-0.612,2.278l-3.938,1.837l-9.245,4.062l-4.775,2.007l-3.07,2.587l-2.426,3.557l-2.264,3.88l-1.777,0.809
	l-4.526,5.012l-1.293,0.161l-4.328,2.758l-2.463,3.205l-0.229,3.191l0.096,8.043l-1.376,1.688l-5.082,3.761l-2.229,5.981
	l2.872,2.233l0.681,3.227l-1.855,3.239l0.171,3.748l0.368,6.73l3.029,3.002h3.328l1.892,3.133l3.379,0.503l3.859,5.672l7.087,4.116
	l2.144,2.875l0.671,6.438l-81.211,1.146l-0.339-35.677l-0.457-2.974l-4.115-3.43l-1.143-1.828v-1.601l2.058-1.602l1.371-1.372
	L475.237,128.823L475.237,128.823z"/>
<path id="OK" fill="#D3D3D3" stroke="#FFFFFF" d="M380.343,320.822l-16.684-1.272l-0.88,10.951l20.465,1.157l32.056,1.304
	l-2.335,24.419l-0.457,17.833l0.229,1.601l4.344,3.657l2.058,1.144l0.687-0.229l0.687-2.059l1.372,1.829h2.058v-1.372l2.743,1.372
	l-0.457,3.887l4.115,0.229l2.516,1.144l4.114,0.686l2.516,1.83l2.286-2.059l3.43,0.687l2.515,3.429h0.914v2.287l2.287,0.687
	l2.285-2.286l1.83,0.686h2.515l0.914,2.516l6.301,2.078l1.372-0.686l1.829-4.115h1.144l1.144,2.059l4.115,0.686l3.658,1.372
	l2.972,0.914l1.829-0.914l0.686-2.515h4.345l2.058,0.914l2.744-2.059h1.143l0.688,1.602h4.115l1.6-2.059l1.829,0.457l2.058,2.516
	l3.201,1.828l3.2,0.916l1.94,1.117l-0.39-37.217l-1.371-10.974l-0.16-8.873l-1.439-6.537l-0.778-7.18l-0.068-3.816l-12.137,0.318
	l-46.41-0.457l-45.037-2.059L380.343,320.822z"/>
<path id="TX" fill="#D3D3D3" stroke="#FFFFFF" d="M361.464,330.573l22.691,1.086l31.093,1.144l-2.335,23.456l-0.297,18.152
	l0.067,2.082l4.345,3.818l1.985,1.447l1.186-0.561l0.373-1.816l1.141,1.804l2.111,0.043l-0.003-1.446l1.67,0.967l1.139,0.409
	l-0.359,3.968l4.09,0.094l2.925,1.197l3.955,0.524l2.381,2.079l2.125-2.076l3.725,0.615l2.222,3.225l1.074,0.321l-0.16,1.965
	l2.214,0.793l2.329-2.055l2.135,0.614l2.229,0.035l0.935,2.437l6.327,2.114l1.594-0.769l1.488-4.178h0.342l0.906,0.082l1.229,2.068
	l3.93,0.665l3.337,1.123l3.427,1.195l1.841-0.975l0.714-2.516l4.453,0.045l1.809,0.931l2.8-2.106l1.104,0.044l0.851,1.605h4.056
	l1.519-2.029l1.868,0.407l1.945,2.403l3.521,2.045l2.859,0.81l1.514,0.801l2.446,1.996l3.043-1.328l2.69,1.141l0.563,6.104
	l-0.039,9.702l0.687,9.534l0.701,3.605l2.676,4.419l0.897,4.951l4.216,5.537l0.196,3.146l0.746,0.786l-0.729,8.38l-2.872,5.007
	l1.533,2.152l-0.631,2.339l-0.669,7.403l-1.505,3.339l0.295,3.502l-5.664,1.585l-9.861,4.525l-0.971,1.94l-2.586,1.938l-2.103,1.455
	l-1.293,0.81l-5.658,5.335l-2.748,2.102l-5.335,3.233l-5.658,2.425l-6.305,3.395l-1.778,1.455l-5.819,3.558l-3.395,0.646
	l-3.881,5.496l-4.041,0.323l-0.971,1.939l2.264,1.939l-1.455,5.497l-1.293,4.525l-1.132,3.881l-0.809,4.525l0.809,2.425l1.777,6.951
	l0.972,6.145l1.776,2.748l-0.97,1.455l-3.071,1.938l-5.658-3.879l-5.495-1.132l-1.294,0.483l-3.233-0.646l-4.203-3.071l-5.173-1.132
	l-7.598-3.395l-2.103-3.881l-1.294-6.467l-3.232-1.938l-0.646-2.265l0.646-0.646l0.323-3.396l-1.294-0.646l-0.646-0.97l1.294-4.365
	l-1.617-2.263l-3.233-1.294l-3.395-4.364l-3.558-6.628l-4.202-2.587l0.161-1.939l-5.334-12.286l-0.809-4.203l-1.778-1.939
	l-0.162-1.455l-5.981-5.334l-2.586-3.072v-1.132l-2.586-2.103l-6.79-1.131l-7.436-0.646l-3.072-2.265l-4.526,1.778l-3.557,1.455
	l-2.263,3.233l-0.97,3.718l-4.365,6.144l-2.425,2.426l-2.586-0.972l-1.778-1.131l-1.94-0.646l-3.88-2.264v-0.646l-1.778-1.94
	l-5.173-2.102l-7.437-7.761l-2.263-4.688v-8.083l-3.233-6.467l-0.485-2.748l-1.617-0.97l-1.131-2.103l-5.012-2.102l-1.293-1.617
	l-7.113-7.921l-1.293-3.233l-4.688-2.264l-1.455-4.364l-2.586-2.91l-1.94-0.484l-0.649-4.679l8.002,0.688l29.035,2.743l29.035,1.601
	l2.233-19.462l3.887-55.555l1.6-18.748l1.372,0.029 M461.693,560.206l-0.565-7.112l-2.748-7.193l-0.566-7.032l1.536-8.245
	l3.313-6.869l3.477-5.416l3.152-3.558l0.646,0.243l-4.771,6.628l-4.364,6.547l-2.021,6.628L458.46,540l0.89,6.143l2.587,7.194
	l0.484,5.173l0.162,1.455L461.693,560.206L461.693,560.206z"/>
<path id="NM" fill="#D3D3D3" stroke="#FFFFFF" d="M288.152,424.013l-0.775-4.748l8.644,0.524l30.171,2.946l27.269,1.689
	l2.215-18.707l3.857-55.877l1.738-19.39l1.572,0.129l0.825-11.164l-104.004-10.636l-17.498,120.436l15.46,1.989l1.293-10.022
	L288.152,424.013L288.152,424.013z"/>
<path id="KS" fill="#D3D3D3" stroke="#FFFFFF" d="M507.881,324.38l-12.618,0.204l-46.09-0.457l-44.557-2.059l-24.63-1.257
	l3.894-64.596l22.084,0.676l40.289,0.841l44.301,0.988h5.097l2.185,2.162l2.018-0.021l1.641,1.014l-0.062,3.009l-1.828,1.726
	l-0.332,2.232l1.844,3.402l2.951,3.194l2.327,1.614l1.302,11.24L507.881,324.38L507.881,324.38z"/>
<path id="NE" fill="#D3D3D3" stroke="#FFFFFF" d="M486.098,240.699l3.23,7.021l-0.128,2.303l3.459,5.494l2.719,3.152h-5.049
	l-43.482-0.938l-40.787-0.891l-22.251-0.784l1.073-21.327l-32.318-2.921l4.344-44.01l15.546,1.029l20.119,1.143l17.833,1.144
	l23.776,1.144l10.745-0.457l2.059,2.286l4.801,2.973l1.143,0.914l4.344-1.372l3.888-0.457l2.744-0.229l1.829,1.372l4.057,1.601
	l2.973,1.6l0.457,1.602l0.915,2.058h1.828l0.799,0.046l0.895,4.684l2.921,8.468l0.572,3.757l2.522,3.773l0.569,5.113l1.606,4.24
	L486.098,240.699z"/>
<path id="SD" fill="#D3D3D3" stroke="#FFFFFF" d="M476.447,204.025l-0.048-0.581l-2.896-4.846l1.86-4.712l1.491-5.887l-2.78-2.079
	l-0.386-2.744l0.793-2.554l3.188,0.015l-0.123-5.006l-0.334-30.174l-0.617-3.769l-4.072-3.331l-0.981-1.677l-0.062-1.609
	l2.021-1.528l1.532-1.666l0.245-2.656l-58.257-1.601l-54.8-3.449l-5.326,63.69l14.591,0.903l19.95,1.206l17.743,0.929l23.777,1.305
	l11.982-0.426l1.966,2.245l5.194,3.253l0.765,0.724l4.541-1.452l6.541-0.615l1.676,1.336l4.204,1.597l2.945,1.637l0.397,1.482
	l1.04,2.241L476.447,204.025z"/>
<path id="ND" fill="#D3D3D3" stroke="#FFFFFF" d="M475.306,128.918l-0.614-8.435l-1.678-6.814l-1.892-13.024l-0.457-10.987
	l-1.74-3.076l-1.756-5.194l0.031-10.444l0.623-3.823l-1.834-5.469l-28.644-0.562l-18.591-0.646l-26.512-1.294l-22.947-2.134
	l-6.993,67.177l54.934,3.345L475.306,128.918L475.306,128.918z"/>
<path id="WY" fill="#D3D3D3" stroke="#FFFFFF" d="M360.377,143.276l-106.743-13.457l-14.083,88.458l113.265,13.586L360.377,143.276z
	"/>
<path id="MT" fill="#D3D3D3" stroke="#FFFFFF" d="M369.209,56.969l-30.674-2.808l-29.261-3.558l-29.26-4.042l-32.332-5.334
	l-18.429-3.396l-32.724-6.934l-4.479,21.349l3.43,7.545l-1.372,4.571l1.829,4.572l3.201,1.372l4.621,10.771l2.695,3.176l0.458,1.144
	l3.429,1.144l0.457,2.058l-7.087,17.604v2.515l2.515,3.201h0.915l4.801-2.974l0.686-1.143l1.601,0.686L214,113.747l2.743,12.574
	l2.972,2.516l0.915,0.686l1.829,2.286l-0.458,3.43l0.686,3.43l1.143,0.915l2.286-2.286h2.744l3.201,1.601l2.515-0.915h4.115
	l3.658,1.602l2.743-0.457l0.458-2.974l2.972-0.686l1.372,1.372l0.457,3.2l1.426,0.835l1.887-11.035l106.746,13.429L369.209,56.969z"
	/>
<path id="CO" fill="#D3D3D3" stroke="#FFFFFF" d="M380.032,320.964l4.903-86.324l-113.389-12.645l-12.214,87.938L380.032,320.964z"
	/>
<path id="ID" fill="#D3D3D3" stroke="#FFFFFF" d="M148.479,176.484l8.771-35.221l1.372-4.229l2.515-5.943l-1.257-2.286l-2.515,0.114
	l-0.8-1.028l0.457-1.144l0.343-3.086l4.458-5.487l1.829-0.457l1.143-1.145l0.572-3.199l0.915-0.687l3.887-5.83l3.887-4.344
	l0.229-3.772l-3.43-2.629l-1.535-4.4l13.625-63.342l13.518,2.527l-4.408,21.383l3.561,7.485l-1.581,4.661l1.97,4.641l3.138,1.256
	l3.835,9.558l3.513,4.437l0.507,1.145l3.341,1.143l0.369,2.099l-6.971,17.376l-0.165,2.564l2.631,3.322l0.905-0.049l4.911-3.025
	l0.678-1.096l1.562,0.659l-0.278,5.354l2.739,12.583l3.918,3.178l1.681,2.166l-0.717,4.083l1.066,2.809l1.062,1.092l2.479-2.353
	l2.849,0.05l2.919,1.335l2.78-0.683l3.794-0.161l3.979,1.602l2.744-0.297l0.497-3.037l2.933-0.766l1.26,1.517l0.441,2.945
	l1.424,1.213l-8.386,53.608C243.438,194.689,155.472,177.988,148.479,176.484L148.479,176.484z"/>
<path id="UT" fill="#D3D3D3" stroke="#FFFFFF" d="M259.498,310.105l-83.749-11.872l20.588-112.541l46.78,8.745l-1.485,10.63
	l-2.312,13.173l7.808,0.93l16.407,1.805l8.211,0.855L259.498,310.105z"/>
<path id="AZ" fill="#D3D3D3" stroke="#FFFFFF" d="M144.911,382.629l-2.627,2.157l-0.323,1.455l0.485,0.97l18.915,10.671
	l12.124,7.598l14.711,8.568l16.812,10.021l12.287,2.425l24.951,2.705l17.255-119.127l-83.736-11.917l-3.092,16.412l-1.606,0.017
	l-1.715,2.629l-2.515-0.114l-1.257-2.743l-2.743-0.344l-0.915-1.144h-0.914l-0.915,0.571l-1.943,1.029l-0.114,6.973l-0.229,1.715
	l-0.572,12.574l-1.486,2.172l-0.572,3.315l2.744,4.915l1.257,5.83l0.8,1.027l1.029,0.572l-0.114,2.285l-1.601,1.372l-3.429,1.715
	l-1.943,1.942l-1.486,3.658l-0.572,4.915l-2.858,2.743l-2.058,0.688l0.136,0.83l-0.457,1.714l0.457,0.801l3.658,0.571l-0.572,2.742
	l-1.486,2.172L144.911,382.629z"/>
<path id="NV" fill="#D3D3D3" stroke="#FFFFFF" d="M196.393,185.574l-23.639,128.822l-1.832,0.35l-1.573,2.406l-2.373,0.012
	l-1.472-2.744l-2.618-0.379l-0.771-1.106l-1.038-0.054l-2.778,1.644l-0.31,6.786l-0.362,5.776l-0.349,8.593l-1.447,2.09
	l-2.438-1.074l-69.08-104.2l18.989-67.585L196.393,185.574z"/>
<path id="OR" fill="#D3D3D3" stroke="#FFFFFF" d="M148.722,175.531l8.85-34.802l1.051-4.229l2.354-5.623l-0.615-1.163l-2.515-0.046
	l-1.282-1.671l0.458-1.465l0.503-3.246l4.458-5.487l1.829-1.1l1.143-1.144l1.486-3.565l4.047-5.669l3.564-3.861l0.229-3.452
	l-3.269-2.468l-1.784-4.645l-12.664-3.61l-15.089-3.545l-15.432,0.114l-0.457-1.371l-5.487,2.059l-4.458-0.572l-2.4-1.601
	l-1.258,0.687l-4.687-0.229l-1.715-1.372l-5.258-2.059l-0.8,0.114l-4.344-1.486l-1.943,1.829l-6.173-0.343l-5.944-4.115l0.686-0.8
	l0.229-7.773l-2.286-3.887l-4.115-0.571l-0.686-2.515l-2.354-0.467l-5.799,2.059l-2.263,6.468L61.3,78.932l-3.233,6.467
	l-5.011,14.064l-6.466,13.579l-8.083,12.608l-1.94,2.91l-0.808,8.568l0.386,12.08L148.722,175.531z"/>
<path id="WA" fill="#D3D3D3" stroke="#FFFFFF" d="M102.073,7.612l4.365,1.455l9.7,2.748l8.568,1.94l20.046,5.658l22.956,5.656
	l15.223,3.208l-13.633,63.586l-12.445-3.524l-15.508-3.571l-15.229,0.033l-0.456-1.345l-5.599,2.18l-4.595-0.737l-2.147-1.584
	l-1.313,0.658l-4.736-0.14l-1.698-1.351l-5.263-2.111l-0.735,0.146l-4.389-1.523l-1.894,1.816l-6.266-0.299L81.1,76.386l0.779-0.933
	L82,67.776l-2.282-3.839l-4.115-0.606l-0.678-2.512l-2.275-0.457l-3.555,1.23l-2.264-3.219l0.323-2.91l2.749-0.323l1.617-4.042
	l-2.587-1.131l0.162-3.719l4.365-0.646l-2.749-2.748l-1.455-7.113l0.647-2.909V24.91l-1.778-3.233l2.263-9.376l2.103,0.484
	l2.425,2.909l2.749,2.587l3.233,1.939l4.527,2.102l3.071,0.646l2.91,1.455l3.395,0.971l2.263-0.162v-2.425l1.293-1.132l2.102-1.293
	l0.323,1.132l0.324,1.778l-2.264,0.483l-0.323,2.103l1.778,1.455l1.132,2.425l0.646,1.939l1.455-0.161l0.162-1.293l-0.97-1.295
	l-0.485-3.231l0.808-1.778l-0.646-1.455v-2.264l1.778-3.557l-1.132-2.586l-2.425-4.851l0.323-0.809L102.073,7.612z M92.617,13.591
	l2.021-0.162l0.485,1.374l1.536-1.616h2.344l0.809,1.535l-1.536,1.698l0.647,0.808l-0.728,2.021l-1.374,0.402
	c0,0-0.889,0.081-0.889-0.241c0-0.323,1.455-2.588,1.455-2.588l-1.698-0.564l-0.323,1.455l-0.728,0.646l-1.536-2.264L92.617,13.591z
	"/>
<path id="CA" fill="#D3D3D3" stroke="#FFFFFF" d="M144.694,382.198l3.94-0.488l1.486-2.012l0.544-2.939l-3.552-0.592l-0.514-0.668
	l0.478-2.031l-0.16-0.59l1.923-0.619l3.042-2.833l0.582-4.995l1.38-3.402l1.943-2.166l3.519-1.59l1.654-1.604l0.069-2.109
	l-0.994-0.58l-1.023-1.072l-1.155-5.849l-2.685-4.83l0.565-3.505l-2.419-1.029l-69.059-104.18l18.902-67.602l-67.08-15.698
	l-1.507,4.732l-0.162,7.438l-5.173,11.801l-3.071,2.587l-0.324,1.132l-1.778,0.809l-1.455,4.203l-0.809,3.232l2.748,4.203
	l1.617,4.203l1.131,3.557l-0.323,6.468l-1.778,3.07l-0.647,5.819l-0.97,3.719l1.778,3.88l2.748,4.526l2.264,4.85l1.293,4.042
	l-0.323,3.233l-0.323,0.484v2.102l5.658,6.305l-0.485,2.426l-0.646,2.264l-0.646,1.938l0.162,8.245l2.102,3.718l1.94,2.588
	l2.748,0.484l0.97,2.748l-1.132,3.558l-2.102,1.615h-1.131l-0.809,3.88l0.485,2.91l3.233,4.364l1.617,5.335l1.455,4.688l1.293,3.07
	l3.395,5.82l1.455,2.586l0.485,2.91l1.616,0.97v2.425l-0.808,1.94l-1.778,7.111l-0.485,1.94l2.425,2.748l4.203,0.485l4.527,1.777
	l3.879,2.103h2.91l2.91,3.07l2.586,4.851l1.131,2.264l3.88,2.102l4.85,0.81l1.455,2.102l0.646,3.232l-1.455,0.646l0.323,0.972
	l3.233,0.808l2.748,0.162l3.16-1.688l3.88,4.203l0.809,2.264l2.586,4.203l0.324,3.232v9.376l0.485,1.778l10.023,1.455l19.723,2.748
	L144.694,382.198L144.694,382.198z M56.559,338.481l1.293,1.536l-0.162,1.294l-3.233-0.081l-0.566-1.213l-0.646-1.455
	L56.559,338.481z M58.499,338.481l1.212-0.646l3.557,2.103l3.072,1.213l-0.889,0.646l-4.527-0.242l-1.616-1.617L58.499,338.481z
	 M79.192,358.283l1.778,2.346l0.81,0.97l1.536,0.565l0.566-1.455l-0.97-1.778l-2.667-2.021l-1.051,0.162L79.192,358.283
	L79.192,358.283z M77.737,366.934l1.778,3.152l1.212,1.938l-1.455,0.242l-1.293-1.212c0,0-0.728-1.455-0.728-1.859
	c0-0.402,0-2.183,0-2.183L77.737,366.934z"/>
</svg>
